Exact Audio Copy V0.99 prebeta 4 from 23. January 2008

EAC 抓取日志文件从19. 六月 2009, 16:31

未知艺术家 / 未知标题

使用驱动器  ：PIONEER DVD-RW  DVR-115   Adapter: 1  ID: 0

读取模式     : 保护
使用精确流   : 是
废除音频缓冲 : 是
使用 C2 指针 : 否

组合读/写偏移校正              : 0
读取 Lead-In 和 Lead-Out       : 否
用静音填充抓取中丢失偏移的采样 : 是
去除首尾静音块                 : 否
在 CRC 计算中使用了空样本      : 否
已用接口                       : Win NT 及 2000 本地 Win32 接口

所用输出格式   : Monkey's Audio 无损编码器
已选比特率     : Normal Lossless Compression
质量           : 高
添加 ID3 标签  : 否
命令行压缩器   : D:\Program Files\Exact Audio Copy\mac.exe


被抓轨 CD 的 TOC

     音轨 |   开始   |   长度   | 起始扇区 | 结尾扇区 
    --------------------------------------------------
       1  |  0:00.00 |  4:31.02 |       0  |   20326  
       2  |  4:31.02 |  3:44.19 |   20327  |   37145  
       3  |  8:15.21 |  2:11.54 |   37146  |   47024  
       4  | 10:27.00 |  4:26.28 |   47025  |   67002  
       5  | 14:53.28 |  3:39.23 |   67003  |   83450  
       6  | 18:32.51 |  2:27.00 |   83451  |   94475  
       7  | 20:59.51 |  4:20.52 |   94476  |  114027  
       8  | 25:20.28 |  2:24.35 |  114028  |  124862  
       9  | 27:44.63 |  4:16.02 |  124863  |  144064  
      10  | 32:00.65 |  5:08.10 |  144065  |  167174  
      11  | 37:09.00 |  2:02.31 |  167175  |  176355  
      12  | 39:11.31 |  4:18.71 |  176356  |  195776  
      13  | 43:30.27 |  5:04.71 |  195777  |  218647  
      14  | 48:35.23 |  4:23.28 |  218648  |  238400  
      15  | 52:58.51 |  4:27.63 |  238401  |  258488  


范围状态及错误

已选择范围

     文件名 C:\Documents and Settings\Administrator\桌面\民族歌坛名人3.wav

     峰值电平 100.0 %
     范围质量 100.0 %
     复制 CRC E18D780F
     复制成功

没有错误发生

状态报告结尾
